<svg xmlns="http://www.w3.org/2000/svg" viewBox="0 0 102.22 102.22"><defs><style>.cls-1{fill:#006db8;}.cls-2{fill:#ff9e00;}.cls-3{font-size:16.86px;font-family:BebasNeueBold, Bebas Neue;}.cls-3,.cls-4{fill:#6a6a6b;}.cls-4{font-size:5.02px;font-family:OpenSans, Open Sans;}</style></defs><title>logo4</title><g id="OBJECTS"><polygon class="cls-1" points="50.06 16.84 31.43 30.15 32.3 28.07 50.06 14.51 50.06 16.84"/><polygon class="cls-1" points="50.06 21.51 29.83 33.97 30.85 31.53 50.06 18.47 50.06 21.51"/><polygon class="cls-1" points="50.06 27.82 27.93 38.51 29.15 35.6 50.06 23.67 50.06 27.82"/><polygon class="cls-1" points="50.06 36.82 25.64 43.98 27.11 40.46 50.06 30.84 50.06 36.82"/><polygon class="cls-1" points="50.06 50.72 22.82 50.72 24.64 46.37 50.06 41.34 50.06 50.72"/><polygon class="cls-1" points="52.16 16.84 70.79 30.15 69.92 28.07 52.16 14.51 52.16 16.84"/><polygon class="cls-1" points="52.16 21.51 72.39 33.97 71.37 31.53 52.16 18.47 52.16 21.51"/><polygon class="cls-1" points="52.16 27.82 74.29 38.51 73.07 35.6 52.16 23.67 52.16 27.82"/><polygon class="cls-1" points="52.16 36.82 76.58 43.98 75.11 40.46 52.16 30.84 52.16 36.82"/><polygon class="cls-1" points="52.16 50.72 79.4 50.72 77.58 46.37 52.16 41.34 52.16 50.72"/><polygon class="cls-2" points="14.72 53.46 50.06 53.89 50.06 58.57 13.02 58.15 14.72 53.46"/><polygon class="cls-2" points="87.49 53.46 52.16 53.89 52.16 58.57 89.2 58.15 87.49 53.46"/><text class="cls-3" transform="translate(0 79.06)">REAL ESTATE</text><text class="cls-4" transform="translate(21.34 86.45)">COMPANY</text></g></svg>