<svg xmlns="http://www.w3.org/2000/svg" viewBox="0 0 102.22 102.22"><defs><style>.cls-1{fill:#ff9e00;}.cls-2{fill:#006db8;}.cls-3{font-size:16.8px;font-family:BebasNeueBold, Bebas Neue;}.cls-3,.cls-4{fill:#6a6a6b;}.cls-4{font-size:5px;font-family:OpenSans, Open Sans;}</style></defs><title>logo5</title><g id="OBJECTS"><rect class="cls-1" x="37.71" y="48.89" width="3.83" height="3.83"/><rect class="cls-1" x="43.67" y="48.89" width="3.83" height="3.83"/><rect class="cls-1" x="37.71" y="54.43" width="3.83" height="3.83"/><rect class="cls-1" x="43.67" y="54.43" width="3.83" height="3.83"/><path class="cls-1" d="M42.61,6.09,15.08,33.62V42a3.21,3.21,0,0,0,.41-.34L42.61,14.52l22.6,22.6V28.69Z"/><path class="cls-2" d="M90.32,28.85a2.63,2.63,0,0,0-.49-.05h-21V51L42.61,24.79,15.08,52.33v8.35a3.21,3.21,0,0,0,.41-.34L42.61,33.22l32.2,32.2V34.76h15a2.63,2.63,0,0,0,.49,0Z"/><text class="cls-3" transform="translate(0.2 87.52)">REAL ESTATE</text><text class="cls-4" transform="translate(21.46 94.88)">COMPANY</text></g></svg>