<svg xmlns="http://www.w3.org/2000/svg" viewBox="0 0 102.22 102.22"><defs><style>.cls-1{fill:#ff9e00;}.cls-2{fill:#006db8;}.cls-3{font-size:16.86px;font-family:BebasNeueBold, Bebas Neue;}.cls-3,.cls-4{fill:#6a6a6b;}.cls-4{font-size:5.02px;font-family:OpenSans, Open Sans;}</style></defs><title>logo1</title><g id="OBJECTS"><path class="cls-1" d="M48.38,3.4A29,29,0,0,1,74.77,44.61V29.27H60.4V39.39L43.81,25.63,22.09,44.84A29,29,0,0,1,48.38,3.4Z"/><path class="cls-2" d="M48.38,3.83a33,33,0,1,0,33,33A33.07,33.07,0,0,0,48.38,3.83Zm0,4A29.05,29.05,0,0,1,74.77,49V33.67H60.4V43.8L43.81,30,22.09,49.24a28.8,28.8,0,0,1-2.78-12.38A29.1,29.1,0,0,1,48.38,7.8Zm0,58.13a29.08,29.08,0,0,1-24.3-13.14L43.89,35.27l20.49,17V37.65h6.41v17.7A29,29,0,0,1,48.38,65.93Z"/><rect class="cls-2" x="39.54" y="45.94" width="3.81" height="3.81"/><rect class="cls-2" x="45.47" y="45.94" width="3.81" height="3.81"/><rect class="cls-2" x="39.54" y="51.44" width="3.81" height="3.81"/><rect class="cls-2" x="45.47" y="51.44" width="3.81" height="3.81"/><text class="cls-3" transform="translate(0 90.18)">REAL ESTATE</text><text class="cls-4" transform="translate(21.34 97.57)">COMPANY</text></g></svg>