<svg xmlns="http://www.w3.org/2000/svg" viewBox="0 0 584.87 605.55"><defs><style>.cls-1{fill:#1b3a50;}.cls-2{fill:#8cbf33;fill-rule:evenodd;}</style></defs><title>mira</title><g id="Capa_2" data-name="Capa 2"><g id="hoja"><path class="cls-1" d="M99.7,547.38a9.67,9.67,0,0,1-8.26-4.72,10.19,10.19,0,0,1,.26-10.93c.62-.92,61.91-91.81,102.61-149.29,38.33-54.15,99.66-108.6,102.25-110.89a9.58,9.58,0,0,1,7.91-2.29,9.73,9.73,0,0,1,6.79,4.74c31.22,53.65,37.08,102.32,17.44,144.67-19.77,42.62-64.31,77.24-132.39,102.91a512.6,512.6,0,0,1-95.21,25.69A9.43,9.43,0,0,1,99.7,547.38Zm200.68-252.6c-18.49,17.19-61.76,59-90.33,99.38C181.12,435,141.73,492.85,121.27,523c48-10.74,157.15-42.37,189.87-112.95C326.57,376.8,322.94,338.06,300.38,294.78Z"/><path class="cls-1" d="M284.87,484.82a144.73,144.73,0,0,1-57.76-12c-33-14.29-51.64-36.19-52.42-37.11a10.15,10.15,0,0,1,1-14.07,9.55,9.55,0,0,1,13.7,1h0c2.68,3.15,66.88,76.75,168,22.47,31.12-16.71,51-39.68,59-68.28,14-50-12.32-101-12.6-101.45a10.4,10.4,0,0,1,.07-10.34c4.16-6.93,9.21-39.71-4.09-64C390.27,183.72,373.64,175,350.3,175H350c-46.27.69-58.14,39.72-58.63,41.38a10.18,10.18,0,0,1-2.2,4L271.2,240.19c14.71,7.57,36.49,21,41,36a10,10,0,0,1-6.42,12.48,9.67,9.67,0,0,1-12.16-6.58c-2.32-7.68-23.8-21.39-42.41-29.37a9.91,9.91,0,0,1-5.75-7.09,10.15,10.15,0,0,1,2.36-8.89l25.57-28.32c6.48-19.45,29.51-52.69,76.41-53.39h.39c38.58,0,57.44,19.69,66.5,36.25,14.21,26,13.17,61.21,6.23,79,7,15.35,25.58,63,12.33,111.38-9.43,34.38-32.59,61.69-68.87,81.17C336.07,479.07,308.58,484.82,284.87,484.82Z"/><path class="cls-1" d="M313.21,594.89a9.8,9.8,0,0,1-9.51-7.9L279.89,472.35a10,10,0,0,1,7.48-11.84,9.73,9.73,0,0,1,11.54,7.68l23.82,114.64a10,10,0,0,1-7.49,11.84A9.41,9.41,0,0,1,313.21,594.89Z"/><path class="cls-1" d="M361.15,594.89a9.8,9.8,0,0,1-9.51-7.93L327.19,467.61a10,10,0,0,1,7.52-11.81,9.73,9.73,0,0,1,11.52,7.71l24.45,119.35a10,10,0,0,1-7.52,11.81A9.17,9.17,0,0,1,361.15,594.89Z"/><ellipse class="cls-1" cx="361.31" cy="233.03" rx="14.35" ry="14.71"/><path class="cls-1" d="M575.14,605.55H9.73a9.85,9.85,0,0,1-9.73-10V219.84a10.06,10.06,0,0,1,4.07-8.11l286-209.87a9.51,9.51,0,0,1,11.4.07L580.89,211.79a10.07,10.07,0,0,1,4,8.05V595.57A9.85,9.85,0,0,1,575.14,605.55Zm-555.69-20h546V224.9L295.67,22.29,19.45,225Z"/><path class="cls-2" d="M225,260.71a45.6,45.6,0,0,1-14.66,35.14,43.2,43.2,0,0,1-35.69,11,45.54,45.54,0,0,1,14.67-35.13A43.15,43.15,0,0,1,225,260.71Z"/><path class="cls-2" d="M225,242.41a66.33,66.33,0,0,0-21.33-51.12,62.78,62.78,0,0,0-51.92-16A66.36,66.36,0,0,0,173,226.42,62.82,62.82,0,0,0,225,242.41Z"/></g></g></svg>